<?xml version="1.0" encoding="UTF-8" standalone="no"?>
<!-- Created with Inkscape (http://www.inkscape.org/) -->

<svg
   xmlns:dc="http://purl.org/dc/elements/1.1/"
   xmlns:cc="http://creativecommons.org/ns#"
   xmlns:rdf="http://www.w3.org/1999/02/22-rdf-syntax-ns#"
   xmlns:svg="http://www.w3.org/2000/svg"
   xmlns="http://www.w3.org/2000/svg"
   xmlns:xlink="http://www.w3.org/1999/xlink"
   xmlns:sodipodi="http://sodipodi.sourceforge.net/DTD/sodipodi-0.dtd"
   xmlns:inkscape="http://www.inkscape.org/namespaces/inkscape"
   width="36.19635mm"
   height="89.543404mm"
   viewBox="0 0 128.25478 317.27977"
   id="svg2"
   version="1.1"
   inkscape:version="0.91 r13725"
   sodipodi:docname="bust.svg">
  <defs
     id="defs4">
    <linearGradient
       inkscape:collect="always"
       id="linearGradient4206">
      <stop
         style="stop-color:#0033bd;stop-opacity:1"
         offset="0"
         id="stop4208" />
      <stop
         id="stop4217"
         offset="0.73273987"
         style="stop-color:#370a71;stop-opacity:1" />
      <stop
         style="stop-color:#8a0aa1;stop-opacity:1"
         offset="1"
         id="stop4210" />
    </linearGradient>
    <linearGradient
       inkscape:collect="always"
       xlink:href="#linearGradient4206"
       id="linearGradient4212"
       x1="-1923.9116"
       y1="-468.33798"
       x2="-1496.483"
       y2="1712.9883"
       gradientUnits="userSpaceOnUse"
       gradientTransform="matrix(0.13617857,0,0,0.13617857,185.20353,1528.5331)" />
  </defs>
  <sodipodi:namedview
     id="base"
     pagecolor="#ffffff"
     bordercolor="#666666"
     borderopacity="1.0"
     inkscape:pageopacity="0.0"
     inkscape:pageshadow="2"
     inkscape:zoom="2"
     inkscape:cx="36.182666"
     inkscape:cy="176.48894"
     inkscape:document-units="px"
     inkscape:current-layer="layer1"
     showgrid="false"
     fit-margin-top="0"
     fit-margin-left="0"
     fit-margin-right="0"
     fit-margin-bottom="0"
     inkscape:window-width="1280"
     inkscape:window-height="710"
     inkscape:window-x="0"
     inkscape:window-y="0"
     inkscape:window-maximized="1" />
  <metadata
     id="metadata7">
    <rdf:RDF>
      <cc:Work
         rdf:about="">
        <dc:format>image/svg+xml</dc:format>
        <dc:type
           rdf:resource="http://purl.org/dc/dcmitype/StillImage" />
        <dc:title />
      </cc:Work>
    </rdf:RDF>
  </metadata>
  <g
     inkscape:label="Layer 1"
     inkscape:groupmode="layer"
     id="layer1"
     transform="translate(99.907767,-1488.6785)">
    <path
       style="fill:url(#linearGradient4212);fill-opacity:1"
       d="m -44.571476,1488.6785 c -0.750494,0 -1.067476,0.085 -1.928588,0.3703 -0.67407,0.2234 -1.521904,0.5345 -1.883881,0.6912 -0.926954,0.4012 -1.42504,0.3686 -2.034167,-0.1335 -0.279221,-0.2301 -0.507756,-0.3809 -0.507756,-0.3348 0,0.046 -0.09759,0.5558 -0.216755,1.1327 -0.11917,0.577 -0.18425,1.2486 -0.14469,1.4924 l 0.07207,0.4431 -0.827966,0 c -0.790081,0 -2.474528,-0.3889 -3.021203,-0.6977 -0.305503,-0.1725 -1.724361,-0.4288 -2.398023,-0.433 -0.262144,0 -0.966854,0.1866 -1.566054,0.4182 -0.961978,0.3717 -4.344968,1.22 -5.855678,1.4681 -1.27504,0.2095 -3.875819,1.0183 -5.042325,1.5682 -0.451486,0.2129 -1.217491,0.6948 -1.702232,1.0708 -1.751434,1.3587 -2.447496,1.9401 -2.447496,2.0445 0,0.059 0.333092,0.4673 0.740212,0.9083 1.176664,1.2747 1.175411,1.2678 0.353478,2.0366 -0.740171,0.6924 -3.315893,2.7 -3.932156,3.0648 -0.34863,0.2064 -0.935601,0.9197 -2.676767,3.2532 -0.449375,0.6022 -1.134176,1.5087 -1.52189,2.0142 -0.616644,0.804 -1.386489,1.8801 -5.108031,7.1416 -0.425885,0.6022 -0.888729,1.2255 -1.028516,1.3853 -0.215326,0.246 -1.469858,2.157 -2.559477,3.8991 -0.408522,0.6532 -2.127286,3.8705 -2.490842,4.6626 -0.162937,0.3549 -0.296297,0.7387 -0.296297,0.8529 1.4e-5,0.1142 -0.05622,0.3141 -0.12474,0.4442 -0.13178,0.2501 -0.716095,1.8222 -1.226928,3.3005 -0.168221,0.4868 -0.457369,1.4673 -0.642327,2.1788 -0.194408,0.7479 -0.441995,1.3841 -0.586739,1.5081 -0.137717,0.1179 -0.417878,0.5469 -0.622649,0.9532 -0.204758,0.4064 -0.476979,0.8921 -0.605083,1.0794 -0.456742,0.6676 -1.909318,3.5265 -2.189765,4.3098 -0.156932,0.4383 -0.335952,0.9194 -0.397899,1.0692 -0.218159,0.5276 -0.543612,2.059 -0.752973,3.5439 -0.278421,1.9745 -0.2036,4.0689 0.264908,7.4185 0.07288,0.521 0.321586,1.778 0.68728,3.4725 0.202375,0.9378 0.712282,2.8549 1.358327,5.1067 0.0967,0.3371 0.489739,1.2709 0.873191,2.0751 0.383451,0.8044 0.697111,1.4861 0.697111,1.5151 0,0.029 0.337042,0.7646 0.748983,1.6346 0.411939,0.87 0.748981,1.61 0.748981,1.6446 1.4e-5,0.095 2.274972,4.7137 2.552559,5.1824 0.90142,1.5221 1.773439,2.9446 2.109964,3.442 0.334986,0.4951 1.220079,2.1217 1.980445,3.6393 0.112566,0.2247 0.349244,0.6037 0.525826,0.8421 0.176583,0.2384 0.321028,0.4864 0.321028,0.5511 0,0.065 0.09016,0.2373 0.20055,0.3835 0.110373,0.1464 0.564515,0.8175 1.00911,1.4916 0.444596,0.6741 1.365654,1.8997 2.046669,2.7236 1.552844,1.8786 1.360492,1.6307 2.012883,2.5927 0.306797,0.4524 0.656462,0.9043 0.776912,1.0043 0.185721,0.1542 1.01931,1.518 1.880163,3.0757 0.845043,1.5292 2.067395,4.1415 2.362644,5.049 0.424033,1.3034 0.416502,1.2701 0.540193,2.3728 0.125666,1.1202 0.286615,1.4279 1.336525,2.5557 1.201176,1.2903 1.288004,1.5819 1.165497,3.9127 -0.112891,2.148 -0.175275,2.7549 -0.454019,4.4168 -0.107595,0.6415 -0.194463,1.7393 -0.193101,2.4395 0.0013,0.7002 -0.07115,1.4508 -0.161181,1.6682 -0.180041,0.4347 -0.315008,0.4635 -1.869255,0.4011 -1.320891,-0.053 -1.367996,0.01 -2.717988,3.2624 -0.108602,0.2622 -0.661583,1.3959 -1.228807,2.5193 -1.006973,1.9945 -1.39929,2.5193 -2.605478,3.4848 -0.178489,0.1429 -0.730012,0.6201 -1.225607,1.0605 -2.121513,1.8851 -3.383166,2.9738 -3.82896,3.3044 -0.262144,0.1945 -0.836014,0.711 -1.27534,1.1477 l -0.798986,0.7942 0.08379,1.5671 0.08378,1.5671 -0.490188,0.5019 -0.490461,0.5022 -0.05665,1.8866 c -0.07551,2.5123 -0.588537,7.695 -1.130391,11.4192 -0.07068,0.4861 -0.06843,0.8704 0.0056,0.9488 0.079,0.084 0.45037,-0.034 1.017349,-0.3218 1.058489,-0.5378 1.672518,-0.7564 2.560008,-0.9674 1.694823,-0.403 3.478954,-0.8385 5.197119,-0.5508 0.267958,0.045 0.744202,0.096 0.738346,0.3452 -0.0054,0.2319 -0.656176,2.6718 -1.598233,5.9932 -0.2974,1.0485 -0.707461,2.5499 -0.911225,3.3364 -0.203778,0.7864 -0.487778,1.8378 -0.63116,2.3363 -0.143369,0.4985 -0.258058,0.9887 -0.255063,1.0894 0.0094,0.3121 0.704684,1.0192 1.906228,1.9392 0.633748,0.4853 1.315104,1.0087 1.514197,1.1631 0.199093,0.1545 0.424482,0.2809 0.500824,0.2809 0.07634,0 0.259379,0.1532 0.40667,0.3405 0.147291,0.1872 0.306769,0.3404 0.354541,0.3404 0.09553,0 2.031566,1.4242 2.452821,1.8044 0.145248,0.131 0.313973,0.2383 0.37475,0.2383 0.06078,0 0.110372,0.095 0.110372,0.2122 0,0.1168 0.05955,0.1757 0.132461,0.1306 0.0729,-0.045 0.239783,0.043 0.370774,0.196 0.13099,0.153 0.292334,0.2782 0.358531,0.2782 0.128907,0 1.065706,0.7079 1.531736,1.1573 0.155543,0.15 0.490216,0.4258 0.743672,0.6131 0.976046,0.721 2.309179,1.8994 4.003159,3.5385 9.20431,8.9059 13.4658,13.1983 16.499954,16.6196 0.367124,0.414 1.070663,1.18 1.563398,1.7023 1.236624,1.3107 2.471042,2.6604 3.598083,3.9345 0.524288,0.5927 1.447674,1.6345 2.051993,2.3147 1.106655,1.2458 2.039206,2.3834 2.918525,3.5604 0.262157,0.3509 0.878706,1.1359 1.370038,1.7445 0.491346,0.6087 1.180505,1.5051 1.531478,1.9919 0.720085,0.9988 1.549644,2.1036 2.556535,3.4044 1.616317,2.0882 2.440824,3.2152 4.184304,5.7195 1.016778,1.4606 1.884943,2.6862 1.929378,2.7236 0.07606,0.064 0.794888,1.068 1.754893,2.4513 0.233927,0.337 0.60436,0.8579 0.823444,1.1575 0.219098,0.2995 0.693203,0.9737 1.053532,1.498 0.360328,0.5242 0.729073,1.0451 0.819468,1.1574 0.604824,0.7518 3.905643,5.5146 4.610653,6.6528 0.354105,0.5717 0.927131,1.4427 1.036237,1.5754 0.359811,0.4376 1.616576,2.2458 1.616576,2.3259 0,0.052 0.136178,0.2854 0.302684,0.5192 0.317391,0.4457 1.006645,1.7953 7.591683,14.8688 2.225811,4.4189 4.7764089,9.4761 5.6681742,11.2379 0.8917518,1.7618 1.981984,3.9679 2.422753,4.9024 0.4407689,0.9345 1.0682662,2.2506 1.3942372,2.9247 0.3259705,0.6741 0.5928258,1.3022 0.5941877,1.3958 0.00134,0.094 0.059143,0.1702 0.1289885,0.1702 0.069859,0 0.1697871,0.1379 0.2223658,0.3064 0.052591,0.1685 0.4225352,0.9716 0.8218517,1.7847 0.3993024,0.813 0.7673798,1.6097 0.8181334,1.7703 0.050751,0.1607 0.37551213,0.8742 0.7215827,1.5858 0.34608456,0.7115 0.79285928,1.692 0.99289168,2.1788 0.20003296,0.4868 0.81670392,1.8657 1.37029702,3.064 0.5536065,1.1984 1.1187475,2.424 1.2559202,2.7236 0.8269721,1.8063 1.2301147,2.6794 1.5721684,3.4045 1.2899514,2.7345 1.6301527,3.5008 1.6301527,3.6725 0,0.1059 0.050236,0.2234 0.1114483,0.2612 0.061226,0.038 0.3721899,0.7004 0.6912698,1.4722 0.3190938,0.7717 0.6379696,1.4949 0.708551,1.6073 0.070581,0.1123 0.2205408,0.4187 0.3332698,0.6809 0.1127286,0.2621 0.2647719,0.583 0.3377773,0.713 0.073019,0.1301 0.1327196,0.2994 0.1327196,0.3761 0,0.077 0.1279398,0.4118 0.2843272,0.7445 0.1564009,0.3327 0.2436505,0.6706 0.1939048,0.7511 -0.049761,0.081 0.032518,0.2519 0.1827243,0.3808 0.1501915,0.129 0.370923,0.533 0.4907194,0.8977 0.1198098,0.3647 0.2894613,0.7937 0.3768883,0.9533 0.08744,0.1596 0.292334,0.6578 0.45534,1.1072 0.163006,0.4494 0.373646,1.001 0.468114,1.2256 0.09445,0.2247 0.376601,0.9859 0.626898,1.6914 0.250308,0.7055 0.594323,1.5776 0.764685,1.9381 0.170357,0.3605 0.386448,0.6564 0.480069,0.6578 0.206365,0.01 0.207601,-0.018 0.02769,-0.4913 -0.07845,-0.2063 -0.168299,-0.8996 -0.199486,-1.5408 -0.03121,-0.6411 -0.08913,-1.5334 -0.128991,-1.9828 -0.03988,-0.4494 -0.105819,-1.3379 -0.146296,-1.9746 -0.04049,-0.6366 -0.101138,-1.372 -0.135099,-1.6342 -0.07038,-0.5431 -0.325484,-3.5779 -0.411997,-4.9024 -0.05464,-0.8362 -0.178543,-2.3004 -0.472635,-5.5833 -0.07046,-0.7864 -0.164326,-1.8895 -0.20853,-2.4512 -0.0442,-0.5618 -0.135511,-1.5357 -0.202933,-2.1643 -0.06794,-0.6285 -0.09788,-1.1825 -0.06783,-1.2311 0.03007,-0.049 -0.03088,-0.6987 -0.135375,-1.4445 -0.104503,-0.7459 -0.227581,-1.8158 -0.273419,-2.3776 -0.154141,-1.8887 -0.179647,-2.1649 -0.255607,-2.7517 -0.04162,-0.3216 -0.107595,-1.3506 -0.146542,-2.2869 -0.0731,-1.7569 -0.158403,-3.1074 -0.271037,-4.2896 -0.035694,-0.3745 -0.1018066,-1.2018 -0.1468134,-1.8384 -0.045007,-0.6367 -0.1713532,-2.1686 -0.280868,-3.4045 -0.1095148,-1.2358 -0.3147498,-3.6599 -0.4561441,-5.3868 -0.1413943,-1.7268 -0.2898968,-3.2895 -0.3300696,-3.4725 -0.040175,-0.183 -0.1040129,-0.823 -0.1417752,-1.4222 -0.060654,-0.9623 -0.2918716,-3.4459 -0.7540344,-8.1026 -0.078057,-0.7864 -0.171776,-1.5632 -0.2085169,-1.7262 -0.036752,-0.1629 -0.1248894,-0.837 -0.1957566,-1.4979 -0.070867,-0.6609 -0.2205139,-1.9677 -0.3324662,-2.9039 -0.1119662,-0.9362 -0.2411314,-2.0699 -0.2869828,-2.5193 -0.075225,-0.7371 -0.3771469,-3.1687 -0.5484458,-4.416 -0.036752,-0.2676 -0.096251,-0.8235 -0.1321883,-1.2354 -0.1800962,-2.0641 -0.3009686,-3.0929 -0.3776777,-3.217 -0.04659,-0.075 -0.09587,-0.4394 -0.109583,-0.8091 -0.013725,-0.3697 -0.074571,-0.9172 -0.1353886,-1.2168 -0.060831,-0.2996 -0.1447713,-0.9124 -0.186442,-1.3618 -0.1796604,-1.9375 -0.7692422,-5.4494 -1.1774683,-8.1707 -0.085198,-0.5679 -0.1728325,-1.1355 -0.2654392,-1.7023 -1.1960499,-6.8976 -1.951894,-13.6107 -3.59170995,-20.2906 -0.49531548,-1.9248 -0.84155638,-3.3268 -1.58573145,-5.7477 -0.1544399,-0.5023 -0.2971279,-1.0539 -0.3170507,-1.2256 -0.019922,-0.1717 -0.1696378,-0.6082 -0.3327251,-0.9702 -0.1630739,-0.362 -0.2967739,-0.7297 -0.2968288,-0.8171 -1.359e-4,-0.284 -0.819917,-1.9011 -1.3085939,-2.5813 -0.6957503,-0.9684 -0.7246155,-2.1377 -1.0077758,-3.2292 -0.1623883,-0.6259 -0.2100849,-1.2797 -0.3952313,-1.8993 -0.5385869,-1.8024 -1.3368427,-3.5177 -2.0700777,-5.25 -0.1456817,-0.3442 -0.3082949,-0.7592 -0.4625307,-1.0214 -0.1542493,-0.2621 -0.3601241,-0.6604 -0.4574646,-0.8851 -0.1828742,-0.4222 -0.6417824,-1.0836 -1.5844104,-2.2834 -0.6891995,-0.8773 -1.9345005,-1.7406 -2.9044005,-2.6079 -0.562353,-0.5029 -1.130539,-0.9993 -1.690124,-1.5053 -0.564151,-0.6108 -1.114016,-0.9958 -1.819704,-1.4055 -0.141708,-0.1278 -0.520733,-0.4036 -0.842074,-0.6126 -0.321327,-0.209 -0.639604,-0.526 -0.707489,-0.7045 -0.187122,-0.4922 -0.0049,-3.2013 0.250025,-3.7154 0.06504,-0.1312 0.339765,-0.6982 0.610406,-1.2599 0.433634,-0.9001 0.827285,-1.6517 1.961816,-3.7449 0.674111,-1.2437 1.550393,-3.2684 1.756227,-4.0577 0.121171,-0.4647 0.304604,-1.0378 0.407474,-1.2738 0.102882,-0.236 0.186972,-0.4915 0.186972,-0.5676 0,-0.076 0.0466,-0.1585 0.103742,-0.1835 0.330137,-0.1442 2.2112942,-4.6889 2.2112942,-5.3424 0,-0.186 0.057277,-0.3739 0.127409,-0.4172 0.070132,-0.044 0.1274633,-0.1848 0.127395,-0.3144 -8.16e-5,-0.1296 0.090245,-0.634 0.2005503,-1.1208 0.110318,-0.4869 0.2388708,-1.5899 0.2856618,-2.4513 0.1088884,-2.0037 0.1941905,-2.5547 0.4774148,-3.0831 0.2981627,-0.5563 1.1900778,-1.3948 1.5905246,-1.4953 0.1723477,-0.043 0.3503196,-0.1952 0.3955037,-0.3376 0.045169,-0.1423 0.1719931,-0.2588 0.2819301,-0.2588 0.1099371,0 0.3482905,-0.097 0.5295578,-0.2159 0.3529886,-0.2313 0.5535389,-0.2366 5.56762,-0.1479 1.4137652,0.025 2.8538533,0 3.2001963,-0.06 0.3463429,-0.058 1.3039098,-0.208 2.1277901,-0.3327 1.9450523,-0.2944 1.9944989,-0.3039 2.3150358,-0.4551 0.1497966,-0.071 0.4561983,-0.1741 0.6808931,-0.2301 0.2246947,-0.056 0.439176,-0.1117 0.4766251,-0.1239 0.037451,-0.012 0.2519303,-0.072 0.476625,-0.1319 0.2246942,-0.06 0.4698157,-0.1526 0.5447143,-0.2048 0.074898,-0.052 0.5038607,-0.178 0.95325,-0.2795 0.98837,-0.2234 0.871801,-0.19 1.336524,-0.3825 0.210846,-0.087 0.457626,-0.1588 0.548434,-0.1588 0.0908,0 0.286071,-0.079 0.43381,-0.1748 0.147739,-0.096 0.513744,-0.2571 0.813339,-0.358 0.299594,-0.1007 0.900248,-0.3898 1.334931,-0.6423 0.434671,-0.2524 0.840996,-0.459 0.902715,-0.459 0.06171,0 0.187773,-0.091 0.280338,-0.2027 0.09255,-0.1115 0.214273,-0.1744 0.270488,-0.1397 0.121217,0.075 2.045868,-1.9386 2.045868,-2.1403 0,-0.126 0.192433,-0.606 0.970541,-2.4198 0.274158,-0.6391 0.426036,-2.234 0.246294,-2.5874 -0.05716,-0.1123 -0.23744,-0.5936 -0.400554,-1.0694 -0.351313,-1.0251 -0.917542,-2.248 -1.294756,-2.7965 -0.148819,-0.2164 -0.732616,-0.8905 -1.29743,-1.4979 -0.564815,-0.6076 -1.19505,-1.3277 -1.40061,-1.6004 -0.370854,-0.492 -0.372174,-0.4997 -0.13964,-0.9873 0.128896,-0.2703 0.269157,-0.4962 0.311457,-0.5019 0.04228,-0.01 0.199419,-0.036 0.349216,-0.067 0.149797,-0.031 0.40359,-0.07 0.563875,-0.086 0.293503,-0.03 0.725462,-0.5177 0.458541,-0.5177 -0.07554,0 -0.137257,0.048 -0.137257,0.1065 0,0.058 -0.168523,0.113 -0.374491,0.121 -0.205967,0.01 -0.26725,-0.014 -0.136178,-0.048 0.131072,-0.035 0.238312,-0.1299 0.238312,-0.2118 0,-0.082 0.04088,-0.1078 0.09097,-0.058 0.05011,0.05 0.188076,0.01 0.30667,-0.104 0.118588,-0.1073 0.39661,-0.2891 0.617584,-0.4038 l 0.401622,-0.2082 -0.03725,-1.4011 c -0.04301,-1.6172 -0.109791,-1.7701 -1.215504,-2.776 l -0.762806,-0.6937 0.980379,-0.7131 c 0.539104,-0.392 0.980106,-0.7692 0.980106,-0.838 0,-0.069 0.064,-0.1253 0.142302,-0.1253 0.281932,0 1.764194,-1.7759 1.764194,-2.1137 0,-0.092 0.08397,-0.2375 0.186459,-0.3226 0.144277,-0.1198 0.157818,-0.3004 0.06036,-0.7998 -0.06923,-0.3548 -0.126329,-0.9275 -0.126329,-1.273 0,-0.5315 -0.115249,-0.8035 -0.748712,-1.7703 -1.479946,-2.2588 -1.799843,-3.3315 -1.306731,-4.3806 0.345949,-0.736 1.016969,-1.2607 2.04268,-1.5974 0.725563,-0.2382 4.417254,-0.9493 5.203232,-1.0022 0.187248,-0.013 0.402231,-0.062 0.477703,-0.1101 0.07547,-0.048 0.381873,-0.1315 0.680892,-0.1854 0.885421,-0.1597 1.251466,-0.4569 1.688654,-1.3722 0.585352,-1.2254 0.699348,-2.0244 0.449498,-3.147 -0.217898,-0.9789 -1.050768,-2.6898 -1.645577,-3.3802 -0.196616,-0.2282 -0.48003,-0.5882 -0.629828,-0.8001 -0.149797,-0.2118 -0.41024,-0.5549 -0.578757,-0.7623 -0.168523,-0.2073 -0.306407,-0.4167 -0.306407,-0.4651 0,-0.048 -0.115411,-0.2541 -0.256394,-0.457 -0.140972,-0.2029 -0.530837,-0.7978 -0.866271,-1.3221 -0.335452,-0.5243 -0.909416,-1.4025 -1.275612,-1.9517 -0.366185,-0.5493 -0.727017,-1.1015 -0.801918,-1.227 -0.0749,-0.1255 -0.435795,-0.7326 -0.801902,-1.3493 -0.366089,-0.6167 -0.749086,-1.1906 -0.851114,-1.2753 -0.102011,-0.085 -0.185391,-0.2119 -0.185391,-0.283 0,-0.071 -0.0766,-0.2067 -0.170228,-0.3014 -0.09362,-0.095 -0.292783,-0.3451 -0.44258,-0.5566 -0.631158,-0.8914 -1.238899,-1.4582 -1.997192,-1.8624 -1.588495,-0.8466 -2.358628,-1.7819 -3.100718,-3.7662 -0.171806,-0.4594 -0.279247,-0.9216 -0.238843,-1.0269 0.04038,-0.1053 0.522173,-0.4895 1.070813,-0.8538 1.590156,-1.0558 2.745781,-2.3645 2.087888,-2.3645 -0.111883,0 -0.801287,0.2688 -1.532006,0.5971 -1.337493,0.6011 -2.215929,0.8987 -2.656288,0.9001 -0.274453,0 -0.321435,-0.4063 -0.07526,-0.6524 0.126604,-0.1266 0.09577,-0.247 -0.137515,-0.5381 -0.454917,-0.5677 -0.571676,-0.934 -0.590715,-1.8517 -0.0236,-1.1371 0.288643,-3.565 0.503219,-3.9122 0.176369,-0.2854 0.470214,-1.9777 0.471573,-2.7135 0.0011,-0.5489 -0.122503,-1.0401 -0.461467,-1.8384 -0.254408,-0.5992 -0.691473,-1.6409 -0.971334,-2.3151 -0.279861,-0.674 -0.615663,-1.4707 -0.746327,-1.7702 -0.13065,-0.2997 -0.281331,-0.698 -0.33459,-0.8852 -0.05326,-0.1873 -0.214237,-0.6001 -0.358,-0.9176 -0.14375,-0.3176 -0.261463,-0.6475 -0.261463,-0.7331 0,-0.086 -0.118176,-0.3465 -0.2625116,-0.5801 -0.1443223,-0.2335 -0.2627842,-0.4553 -0.2627842,-0.4928 -0.00134,-0.1438 -0.3028747,-0.9013 -0.4971061,-1.2466 -0.1118297,-0.1988 -0.2032058,-0.4294 -0.2032058,-0.5123 0,-0.083 -0.12764,-0.4411 -0.2835236,-0.7961 -0.1558835,-0.3549 -0.3675051,-0.8404 -0.4702384,-1.079 -0.1027467,-0.2386 -0.439053,-1.2191 -0.7476472,-2.1789 -0.8410256,-2.6157 -1.2437734,-3.7402 -1.5128625,-4.2244 -0.364877,-0.6565 -1.975556,-2.6711 -2.2918987,-2.8667 -0.1524388,-0.094 -0.2771508,-0.2252 -0.2771508,-0.291 0,-0.1773 0.9871857,-1.1037 1.1761473,-1.1037 0.089565,0 0.1833233,-0.048 0.2082574,-0.1073 0.024962,-0.059 0.3825123,-0.2661 0.7944522,-0.4603 0.4119404,-0.1943 1.208585,-0.5706 1.7703216,-0.8363 1.8106302,-0.8564 3.7413564,-2.6046 4.3149004,-3.9071 0.08244,-0.1872 0.305503,-0.6775 0.495772,-1.0894 0.190252,-0.412 0.574479,-1.5457 0.854045,-2.5193 0.397964,-1.3862 0.510736,-2.0216 0.51945,-2.9279 l 0.01119,-1.1575 -0.990223,-1.8384 c -0.544688,-1.0111 -1.085263,-2.0462 -1.201137,-2.3001 -0.197554,-0.4329 -1.217232,-1.9077 -1.422698,-2.0576 -0.05131,-0.037 -0.1334142,-0.1907 -0.1821936,-0.3405 -0.048793,-0.1498 -0.2022522,-0.4197 -0.3412499,-0.6 l -0.2526653,-0.3277 -0.556426,0.3958 c -0.3060342,0.2177 -0.7161905,0.6868 -0.911225,1.0426 -0.195035,0.3558 -0.3966609,0.6462 -0.448164,0.6453 -0.1089292,0 -0.6805525,-0.836 -0.9790423,-1.4283 -0.1132185,-0.2247 -0.3628747,-0.6537 -0.554832,-0.9533 -0.1919438,-0.2995 -0.6993315,-1.2608 -1.1274636,-2.136 -0.4281316,-0.8753 -1.0518838,-1.9911 -1.3862432,-2.4794 -0.3343594,-0.4884 -0.6080236,-0.9295 -0.6080236,-0.9807 0,-0.1662 -1.54457817,-2.0025 -2.39509508,-2.8472 -1.09813062,-1.0907 -3.51079272,-2.2534 -5.36708372,-2.5866 -0.2621437,-0.047 -0.6298256,-0.1415 -0.8170713,-0.2099 -0.1872457,-0.068 -1.4354314,-0.2808 -2.7738349,-0.4721 -1.3383905,-0.1912 -2.5639975,-0.4162 -2.7235715,-0.4997 -0.919777,-0.4818 -2.579916,-2.1289 -3.476012,-3.4489 -0.305082,-0.4494 -0.673063,-0.9681 -0.817875,-1.1528 l -0.263315,-0.3359 -0.328476,0.7445 c -0.180573,0.4094 -0.438141,1.0506 -0.572373,1.4251 -0.134231,0.3745 -0.391037,1.007 -0.570778,1.4054 l -0.326611,0.7243 -0.508014,-0.3097 c -0.279384,-0.1702 -1.560512,-1.3449 -2.846991,-2.6105 -1.286465,-1.2656 -2.522639,-2.4328 -2.746966,-2.5938 -0.224341,-0.1609 -0.719173,-0.5588 -1.099547,-0.884 -0.564923,-0.4832 -0.691529,-0.5439 -0.691529,-0.3315 0,0.2162 0.621778,1.9054 1.56792,4.2594 0.136246,0.339 0.163754,0.7125 0.09496,1.2936 l -0.09682,0.8171 -0.655087,0.1266 c -0.686585,0.1326 -1.082878,0.045 -2.204663,-0.4862 -0.640666,-0.3034 -0.850953,-0.4318 -1.765528,-1.0782 -0.377146,-0.2666 -1.084009,-0.7213 -1.570847,-1.0105 -0.486838,-0.2891 -1.191562,-0.7245 -1.566053,-0.9673 -0.662373,-0.4296 -0.924204,-0.5268 -3.064018,-1.1389 -0.561737,-0.1607 -1.450302,-0.4172 -1.97459,-0.5697 -0.524287,-0.1526 -1.285702,-0.3321 -1.692127,-0.399 -0.406425,-0.067 -0.774107,-0.1733 -0.817072,-0.2365 -0.04296,-0.063 -0.599077,-0.2884 -1.235711,-0.5005 -0.94015,-0.3133 -1.464383,-0.3966 -2.791661,-0.4434 -0.382703,-0.013 -0.681002,-0.022 -0.931162,-0.022 z m 8.632169,3.3899 c 0.468427,0 1.218689,0.2986 1.218689,0.4821 0,0.1089 -0.01532,0.1954 -0.03404,0.1921 -0.58392,-0.1025 -1.591151,-0.6758 -1.184649,-0.6742 z m 31.6272147,9.1231 c 0.227881,0 1.5904021,0.9497 2.3567881,1.6427 0.3075186,0.278 0.6890499,0.5751 0.8479296,0.6601 0.15889307,0.085 0.35375083,0.2759 0.43300695,0.424 0.0792421,0.1481 0.12667298,0.2644 0.1053206,0.2585 -0.36396481,-0.1008 -1.35398285,-0.7694 -1.44609385,-0.9766 -0.024973,-0.056 -0.1168959,-0.1037 -0.204268,-0.1054 -0.2290522,-0.01 -2.316806,-1.9033 -2.0926834,-1.9033 z m 3.96539762,3.2388 c 0.0483403,0.01 0.13631475,0.085 0.29576605,0.2332 0.19404063,0.1798 0.31303387,0.3915 0.26437703,0.4703 -0.23315133,0.3772 -0.6170658,0.04 -0.6170658,-0.5424 0,-0.1151 0.00858,-0.171 0.0569227,-0.1611 z m -63.22222232,123.8589 0.159043,0.137 c 0.0094,0.01 0.02934,0.023 0.04974,0.043 7.35949,6.0476 11.60522,9.6896 17.460364,14.4705 1.79737,1.4676 3.59438,2.9363 5.424075,4.3634 0.886717,0.6916 2.316563,1.8121 2.691054,2.0346 0.374491,0.2225 0.895374,0.5201 1.157518,0.6615 0.262144,0.1414 0.874947,0.4746 1.361785,0.7404 0.486839,0.2658 1.283483,0.6908 1.770322,0.9445 0.486838,0.2538 0.915801,0.493 0.95325,0.5314 0.03745,0.039 0.555186,0.3142 1.150614,0.6128 1.001048,0.5021 1.375852,0.8352 4.97557,4.424 5.303801,5.2877 4.890336,4.7356 4.994185,6.6669 0.05037,0.9367 0.02439,1.9375 -0.06383,2.4605 -0.08179,0.4849 -0.189888,1.4639 -0.240179,2.1754 -0.05029,0.7116 -0.138357,1.3856 -0.195756,1.498 -0.05741,0.1123 -0.177659,0.7864 -0.267047,1.498 -0.08939,0.7114 -0.254286,1.7729 -0.366511,2.3586 -0.112238,0.5857 -0.169052,1.156 -0.126332,1.2674 0.04468,0.1163 -0.06722,0.3366 -0.263315,0.5183 -0.300383,0.2784 -0.960428,1.118 -1.35045,1.7401 -0.288361,0.4599 -0.509531,0.9601 -0.723082,1.4592 -0.113138,0.2644 -0.188798,0.3601 -0.29469,0.8109 -0.105879,0.4509 -0.269784,0.8494 -0.364387,0.8857 -0.213569,0.082 -0.596775,-0.4268 -1.607806,-2.1355 -0.519199,-1.2196 -1.397844,-2.4192 -1.932033,-3.338 -0.248418,-0.4715 -0.610067,-1.0456 -0.803781,-1.2758 -0.193714,-0.2302 -0.450424,-0.6103 -0.570506,-0.8447 -0.120082,-0.2345 -0.259502,-0.457 -0.309861,-0.4945 -0.132896,-0.099 -1.776981,-2.4401 -1.776981,-2.5305 0,-0.042 -0.09407,-0.1704 -0.209047,-0.2854 -0.179252,-0.1792 -0.859206,-1.1151 -1.553294,-2.1378 -0.107949,-0.1591 -0.635532,-0.8713 -1.172402,-1.5829 -0.536857,-0.7115 -1.198998,-1.6307 -1.471641,-2.0426 -0.272629,-0.412 -0.986301,-1.4538 -1.585731,-2.3151 -0.599418,-0.8613 -1.709831,-2.4792 -2.467706,-3.5952 -0.757861,-1.1159 -1.569744,-2.287 -1.804094,-2.6025 -0.234349,-0.3155 -0.54865,-0.7785 -0.69846,-1.0285 -0.471695,-0.7875 -0.541486,-0.7085 -0.718914,-1.1129 -0.08635,-0.1557 -0.154875,-0.2752 -0.237795,-0.3931 -0.263165,-0.3315 -0.334522,-0.4342 -0.694183,-0.9705 -0.07783,-0.1161 -0.185557,-0.2712 -0.300015,-0.4344 l -12.512741,-16.136 c -0.896545,-1.019 -1.977531,-2.3318 -2.154114,-2.5968 -0.743889,-0.9362 -1.388694,-1.7328 -1.432802,-1.7703 -0.158894,-0.1349 -1.182562,-1.5791 -1.544252,-2.1788 -0.07088,-0.1176 -0.115057,-0.1981 -0.145479,-0.2588 z m 43.280041,50.7064 2.184182,1.7485 c 0.233887,0.1872 0.438972,0.4079 0.658015,0.6123 0.797094,0.7438 1.123323,1.0063 2.387918,2.2352 1.995929,1.9396 2.332236,2.3277 2.548827,2.9428 0.137228,0.3896 0.258141,0.9617 0.268626,1.2713 0.01049,0.3097 0.110854,0.8961 0.158254,1.345 0.06268,0.5936 0.206157,1.1873 0.166771,1.7829 -0.246586,3.7288 -2.357066,7.1935 -2.504887,10.9275 0.01217,0.098 -0.07557,0.4408 -0.281668,0.091 -1.59569,-4.1364 -3.824847,-8.1686 -6.232816,-12.5529 -0.189192,-0.3423 -0.662059,-1.2352 -1.050862,-1.9842 -0.388804,-0.749 -0.985252,-1.7907 -1.325345,-2.315 -0.340105,-0.5243 -0.753857,-1.195 -0.919477,-1.4905 0.264913,-1.7516 1.368624,-3.3851 2.321148,-4.7788 0.988786,-0.5269 1.017159,-0.3545 1.621314,0.1649 z"
       id="path4201"
       inkscape:connector-curvature="0"
       sodipodi:nodetypes="scscssccscscssssssccssccscsccscsscscssssscsscsscssssssssssccsscssccccccccccsaacscccssssssssccsssssscsccssssscssccscsssscsccscsscssccsscscccccsccsccssscssscccscscsssssscsccsccccsscccscccaaaccsacccccssccscssccccccscscccccssssssscsccsscccscscscssssscccccccsssscccsssscssccssscccsccsssscssssscssccsscscscccsscsccsscssccscccccccccscccssssssssccccscccscssccccssssssssssssscssccccccscccscccccaacccsssssscsccccaacsccccsscscscscccscccccccccsscssaaccccsccc" />
  </g>
</svg>
